<?xml version="1.0" encoding="utf-8"?>
<!DOCTYPE svg PUBLIC "-//W3C//DTD SVG 1.1//EN" "http://www.w3.org/Graphics/SVG/1.1/DTD/svg11.dtd">
<svg version="1.1" xmlns="http://www.w3.org/2000/svg" xmlns:xlink="http://www.w3.org/1999/xlink" x="0px" y="0px" width="200px"
	 height="206px" viewBox="0 0 200 206" enable-background="new 0 0 200 206" xml:space="preserve">
<g id="Layer_2">
	<rect fill="#FD4326" width="200" height="206"/>
</g>
<g id="Layer_1">
	<g id="Shape_2_1_" enable-background="new    ">
		<g id="Shape_2">
			<g>
				<path fill="#FFFFFF" d="M44.413,59.918C21.521,116.037,97.8,192.973,152.42,159.121C96.424,166.65,48.6,114.677,44.413,59.918z"
					/>
			</g>
		</g>
	</g>
	<g id="Shape_3_1_" enable-background="new    ">
	</g>
	<g id="Shape_4_1_" enable-background="new    ">
	</g>
	<g id="Shape_5_1_" enable-background="new    ">
		<g id="Shape_5_2_">
			<g>
				<path fill="#FFFFFF" d="M163.619,50.795C115.822-2.308,53.419,0.79,25.1,34.338C-2.681,68.561,6.585,120.25,41.402,158.395
					c36.377,37.933,87.749,51.986,121.959,27.424C203.006,157.239,198.915,90.896,163.619,50.795z M153.544,162.902
					c-26.592,19.094-66.517,8.171-94.792-21.314C31.693,111.941,24.49,71.769,46.083,45.17
					c22.541-25.771,70.512-28.481,107.659,12.792C181.176,89.128,184.355,140.69,153.544,162.902z"/>
			</g>
		</g>
	</g>
</g>
</svg>
